<svg width="12" height="7" viewBox="0 0 12 7" fill="none" xmlns="http://www.w3.org/2000/svg">
<path d="M10.872 0.499994C10.7795 0.407291 10.6696 0.333743 10.5486 0.283562C10.4277 0.23338 10.298 0.20755 10.167 0.20755C10.036 0.20755 9.90636 0.23338 9.78539 0.283562C9.66441 0.333743 9.55452 0.407291 9.46201 0.499994L5.58201 4.37999L1.70201 0.499994C1.60943 0.407412 1.49952 0.333972 1.37855 0.283867C1.25759 0.233762 1.12794 0.207973 0.99701 0.207973C0.866079 0.207973 0.73643 0.233762 0.615466 0.283867C0.494502 0.333972 0.38459 0.407412 0.292008 0.499994C0.199427 0.592576 0.125988 0.702486 0.0758829 0.823451C0.0257778 0.944415 -1.05283e-05 1.07406 -1.0534e-05 1.20499C-1.05397e-05 1.33592 0.0257778 1.46557 0.0758829 1.58654C0.125988 1.7075 0.199427 1.81741 0.292008 1.90999L4.88201 6.49999C4.97452 6.5927 5.08441 6.66625 5.20538 6.71643C5.32636 6.76661 5.45604 6.79244 5.58701 6.79244C5.71798 6.79244 5.84766 6.76661 5.96863 6.71643C6.08961 6.66625 6.1995 6.5927 6.29201 6.49999L10.882 1.90999C11.262 1.52999 11.262 0.889994 10.872 0.499994Z" fill="black"/>
</svg>
